<?xml version="1.0" standalone="yes"?>

<svg version="1.1" viewBox="0.0 0.0 960.0 720.0" fill="none" stroke="none" stroke-linecap="square" stroke-miterlimit="10" xmlns="http://www.w3.org/2000/svg" xmlns:xlink="http://www.w3.org/1999/xlink"><clipPath id="p.0"><path d="m0 0l960.0 0l0 720.0l-960.0 0l0 -720.0z" clip-rule="nonzero"></path></clipPath><g clip-path="url(#p.0)"><path fill="#000000" fill-opacity="0.0" d="m0 0l960.0 0l0 720.0l-960.0 0z" fill-rule="nonzero"></path><path fill="#cfe2f3" d="m37.874016 192.7769l188.8819 0l0 140.00002l-188.8819 0z" fill-rule="nonzero"></path><path stroke="#000000" stroke-width="2.0" stroke-linejoin="round" stroke-linecap="butt" d="m37.874016 192.7769l188.8819 0l0 140.00002l-188.8819 0z" fill-rule="nonzero"></path><path fill="#000000" d="m94.9458 213.8394l-2.46875 -9.3125l1.265625 0l1.421875 6.109375q0.21875 0.953125 0.390625 1.90625q0.359375 -1.5 0.421875 -1.71875l1.765625 -6.296875l1.484375 0l1.328125 4.71875q0.5 1.75 0.734375 3.296875q0.171875 -0.890625 0.453125 -2.03125l1.46875 -5.984375l1.234375 0l-2.546875 9.3125l-1.1875 0l-1.96875 -7.09375q-0.25 -0.890625 -0.296875 -1.09375q-0.140625 0.640625 -0.265625 1.09375l-1.96875 7.09375l-1.265625 0zm15.423477 -2.171875l1.1875 0.140625q-0.28125 1.046875 -1.046875 1.625q-0.75 0.5625 -1.921875 0.5625q-1.484375 0 -2.359375 -0.90625q-0.859375 -0.921875 -0.859375 -2.5625q0 -1.703125 0.875 -2.640625q0.890625 -0.9375 2.28125 -0.9375q1.359375 0 2.203125 0.921875q0.859375 0.921875 0.859375 2.578125q0 0.109375 0 0.3125l-5.03125 0q0.0625 1.109375 0.625 1.703125q0.5625 0.59375 1.40625 0.59375q0.640625 0 1.078125 -0.328125q0.453125 -0.34375 0.703125 -1.0625zm-3.75 -1.84375l3.765625 0q-0.078125 -0.859375 -0.4375 -1.28125q-0.546875 -0.65625 -1.40625 -0.65625q-0.796875 0 -1.328125 0.53125q-0.53125 0.515625 -0.59375 1.40625zm7.5999756 4.015625l-1.0625 0l0 -9.3125l1.15625 0l0 3.328125q0.71875 -0.90625 1.84375 -0.90625q0.625 0 1.171875 0.25q0.5625 0.25 0.921875 0.703125q0.359375 0.453125 0.5625 1.09375q0.203125 0.640625 0.203125 1.375q0 1.734375 -0.859375 2.6875q-0.859375 0.9375 -2.0625 0.9375q-1.1875 0 -1.875 -1.0l0 0.84375zm-0.015625 -3.421875q0 1.21875 0.34375 1.75q0.53125 0.890625 1.453125 0.890625q0.75 0 1.296875 -0.65625q0.546875 -0.65625 0.546875 -1.9375q0 -1.328125 -0.53125 -1.953125q-0.515625 -0.625 -1.265625 -0.625q-0.75 0 -1.296875 0.65625q-0.546875 0.640625 -0.546875 1.875zm10.177963 3.421875l0 -9.3125l3.484375 0q1.078125 0 1.71875 0.296875q0.640625 0.28125 1.0 0.875q0.375 0.578125 0.375 1.21875q0 0.59375 -0.328125 1.125q-0.328125 0.515625 -0.96875 0.84375q0.84375 0.25 1.296875 0.84375q0.453125 0.59375 0.453125 1.40625q0 0.65625 -0.28125 1.21875q-0.28125 0.5625 -0.6875 0.875q-0.40625 0.296875 -1.015625 0.453125q-0.609375 0.15625 -1.5 0.15625l-3.546875 0zm1.234375 -5.390625l2.015625 0q0.8125 0 1.171875 -0.109375q0.46875 -0.140625 0.703125 -0.46875q0.234375 -0.328125 0.234375 -0.8125q0 -0.46875 -0.21875 -0.8125q-0.21875 -0.359375 -0.640625 -0.484375q-0.40625 -0.125 -1.40625 -0.125l-1.859375 0l0 2.8125zm0 4.296875l2.3125 0q0.59375 0 0.84375 -0.046875q0.421875 -0.078125 0.703125 -0.25q0.28125 -0.1875 0.46875 -0.515625q0.1875 -0.34375 0.1875 -0.796875q0 -0.515625 -0.265625 -0.890625q-0.265625 -0.390625 -0.75 -0.546875q-0.46875 -0.15625 -1.359375 -0.15625l-2.140625 0l0 3.203125zm7.5460052 1.09375l0 -6.734375l1.03125 0l0 1.015625q0.390625 -0.71875 0.71875 -0.9375q0.34375 -0.234375 0.734375 -0.234375q0.578125 0 1.171875 0.359375l-0.390625 1.0625q-0.421875 -0.25 -0.828125 -0.25q-0.375 0 -0.6875 0.234375q-0.296875 0.21875 -0.421875 0.625q-0.1875 0.609375 -0.1875 1.328125l0 3.53125l-1.140625 0zm4.0321198 -3.375q0 -1.875 1.03125 -2.765625q0.875 -0.75 2.125 -0.75q1.390625 0 2.265625 0.90625q0.890625 0.90625 0.890625 2.515625q0 1.296875 -0.390625 2.046875q-0.390625 0.75 -1.140625 1.171875q-0.75 0.40625 -1.625 0.40625q-1.421875 0 -2.296875 -0.90625q-0.859375 -0.90625 -0.859375 -2.625zm1.171875 0q0 1.296875 0.5625 1.953125q0.5625 0.640625 1.421875 0.640625q0.84375 0 1.40625 -0.640625q0.578125 -0.65625 0.578125 -1.984375q0 -1.25 -0.578125 -1.890625q-0.5625 -0.65625 -1.40625 -0.65625q-0.859375 0 -1.421875 0.640625q-0.5625 0.640625 -0.5625 1.9375zm7.8968506 3.375l-2.0625 -6.734375l1.1875 0l1.078125 3.890625l0.390625 1.4375q0.03125 -0.109375 0.359375 -1.390625l1.0625 -3.9375l1.171875 0l1.015625 3.90625l0.34375 1.28125l0.375 -1.296875l1.15625 -3.890625l1.109375 0l-2.109375 6.734375l-1.171875 0l-1.078125 -4.03125l-0.265625 -1.15625l-1.359375 5.1875l-1.203125 0zm7.9376526 -2.015625l1.125 -0.171875q0.09375 0.671875 0.53125 1.046875q0.4375 0.359375 1.21875 0.359375q0.78125 0 1.15625 -0.3125q0.390625 -0.328125 0.390625 -0.765625q0 -0.390625 -0.34375 -0.609375q-0.234375 -0.15625 -1.171875 -0.390625q-1.25 -0.3125 -1.734375 -0.546875q-0.484375 -0.234375 -0.734375 -0.640625q-0.25 -0.40625 -0.25 -0.90625q0 -0.453125 0.203125 -0.828125q0.203125 -0.390625 0.5625 -0.640625q0.265625 -0.203125 0.71875 -0.328125q0.46875 -0.140625 1.0 -0.140625q0.78125 0 1.375 0.234375q0.609375 0.21875 0.890625 0.609375q0.296875 0.390625 0.40625 1.046875l-1.125 0.15625q-0.078125 -0.53125 -0.4375 -0.8125q-0.359375 -0.296875 -1.03125 -0.296875q-0.78125 0 -1.125 0.265625q-0.34375 0.25 -0.34375 0.609375q0 0.21875 0.140625 0.390625q0.140625 0.1875 0.4375 0.3125q0.171875 0.0625 1.015625 0.28125q1.21875 0.328125 1.6875 0.53125q0.484375 0.203125 0.75 0.609375q0.28125 0.390625 0.28125 0.96875q0 0.578125 -0.34375 1.078125q-0.328125 0.5 -0.953125 0.78125q-0.625 0.28125 -1.421875 0.28125q-1.3125 0 -2.0 -0.546875q-0.6875 -0.546875 -0.875 -1.625zm11.726547 -0.15625l1.1875 0.140625q-0.28125 1.046875 -1.046875 1.625q-0.74998474 0.5625 -1.9218597 0.5625q-1.484375 0 -2.359375 -0.90625q-0.859375 -0.921875 -0.859375 -2.5625q0 -1.703125 0.875 -2.640625q0.890625 -0.9375 2.28125 -0.9375q1.359375 0 2.2031097 0.921875q0.859375 0.921875 0.859375 2.578125q0 0.109375 0 0.3125l-5.0312347 0q0.0625 1.109375 0.625 1.703125q0.5625 0.59375 1.40625 0.59375q0.640625 0 1.078125 -0.328125q0.453125 -0.34375 0.70310974 -1.0625zm-3.7499847 -1.84375l3.7656097 0q-0.07810974 -0.859375 -0.43748474 -1.28125q-0.546875 -0.65625 -1.40625 -0.65625q-0.796875 0 -1.328125 0.53125q-0.53125 0.515625 -0.59375 1.40625zm6.5374603 4.015625l0 -6.734375l1.03125 0l0 1.015625q0.390625 -0.71875 0.71875 -0.9375q0.34375 -0.234375 0.734375 -0.234375q0.578125 0 1.171875 0.359375l-0.390625 1.0625q-0.421875 -0.25 -0.828125 -0.25q-0.375 0 -0.6875 0.234375q-0.296875 0.21875 -0.421875 0.625q-0.1875 0.609375 -0.1875 1.328125l0 3.53125l-1.140625 0z" fill-rule="nonzero"></path><path fill="#cfe2f3" d="m372.29922 192.7769l188.88187 0l0 140.00002l-188.88187 0z" fill-rule="nonzero"></path><path stroke="#000000" stroke-width="2.0" stroke-linejoin="round" stroke-linecap="butt" d="m372.29922 192.7769l188.88187 0l0 140.00002l-188.88187 0z" fill-rule="nonzero"></path><path fill="#000000" d="m415.8312 210.85503l1.171875 -0.109375q0.078125 0.703125 0.375 1.15625q0.3125 0.4375 0.9375 0.71875q0.640625 0.265625 1.4375 0.265625q0.703125 0 1.234375 -0.203125q0.546875 -0.203125 0.8125 -0.5625q0.265625 -0.375 0.265625 -0.8125q0 -0.4375 -0.265625 -0.765625q-0.25 -0.328125 -0.828125 -0.546875q-0.375 -0.140625 -1.65625 -0.453125q-1.28125 -0.3125 -1.796875 -0.578125q-0.671875 -0.34375 -1.0 -0.859375q-0.328125 -0.53125 -0.328125 -1.171875q0 -0.703125 0.390625 -1.3125q0.40625 -0.609375 1.171875 -0.921875q0.78125 -0.328125 1.71875 -0.328125q1.03125 0 1.8125 0.34375q0.796875 0.328125 1.21875 0.984375q0.4375 0.640625 0.46875 1.453125l-1.1875 0.09375q-0.09375 -0.890625 -0.640625 -1.328125q-0.546875 -0.453125 -1.625 -0.453125q-1.109375 0 -1.625 0.40625q-0.515625 0.40625 -0.515625 0.984375q0 0.5 0.359375 0.828125q0.359375 0.328125 1.859375 0.671875q1.5 0.328125 2.0625 0.578125q0.8125 0.375 1.1875 0.953125q0.390625 0.578125 0.390625 1.328125q0 0.734375 -0.421875 1.390625q-0.421875 0.65625 -1.21875 1.03125q-0.796875 0.359375 -1.796875 0.359375q-1.265625 0 -2.125 -0.359375q-0.84375 -0.375 -1.328125 -1.109375q-0.484375 -0.75 -0.515625 -1.671875zm13.780365 0.8125l1.1875 0.140625q-0.28125 1.046875 -1.046875 1.625q-0.75 0.5625 -1.921875 0.5625q-1.484375 0 -2.359375 -0.90625q-0.859375 -0.921875 -0.859375 -2.5625q0 -1.703125 0.875 -2.640625q0.890625 -0.9375 2.28125 -0.9375q1.359375 0 2.203125 0.921875q0.859375 0.921875 0.859375 2.578125q0 0.109375 0 0.3125l-5.03125 0q0.0625 1.109375 0.625 1.703125q0.5625 0.59375 1.40625 0.59375q0.640625 0 1.078125 -0.328125q0.453125 -0.34375 0.703125 -1.0625zm-3.75 -1.84375l3.765625 0q-0.078125 -0.859375 -0.4375 -1.28125q-0.546875 -0.65625 -1.40625 -0.65625q-0.796875 0 -1.328125 0.53125q-0.53125 0.515625 -0.59375 1.40625zm6.5374756 4.015625l0 -6.734375l1.03125 0l0 1.015625q0.390625 -0.71875 0.71875 -0.9375q0.34375 -0.234375 0.734375 -0.234375q0.578125 0 1.171875 0.359375l-0.390625 1.0625q-0.421875 -0.25 -0.828125 -0.25q-0.375 0 -0.6875 0.234375q-0.296875 0.21875 -0.421875 0.625q-0.1875 0.609375 -0.1875 1.328125l0 3.53125l-1.140625 0zm6.32901 0l-2.5625 -6.734375l1.203125 0l1.4375 4.03125q0.234375 0.65625 0.4375 1.359375q0.15625 -0.53125 0.421875 -1.28125l1.5 -4.109375l1.171875 0l-2.546875 6.734375l-1.0625 0zm4.7578125 0l0 -9.3125l1.140625 0l0 9.3125l-1.140625 0zm7.601715 -2.171875l1.1875 0.140625q-0.28125 1.046875 -1.046875 1.625q-0.75 0.5625 -1.921875 0.5625q-1.484375 0 -2.359375 -0.90625q-0.859375 -0.921875 -0.859375 -2.5625q0 -1.703125 0.875 -2.640625q0.890625 -0.9375 2.28125 -0.9375q1.359375 0 2.203125 0.921875q0.859375 0.921875 0.859375 2.578125q0 0.109375 0 0.3125l-5.03125 0q0.0625 1.109375 0.625 1.703125q0.5625 0.59375 1.40625 0.59375q0.640625 0 1.078125 -0.328125q0.453125 -0.34375 0.703125 -1.0625zm-3.75 -1.84375l3.765625 0q-0.078125 -0.859375 -0.4375 -1.28125q-0.546875 -0.65625 -1.40625 -0.65625q-0.796875 0 -1.328125 0.53125q-0.53125 0.515625 -0.59375 1.40625zm9.053101 3.0l0.15625 1.0q-0.484375 0.109375 -0.859375 0.109375q-0.625 0 -0.96875 -0.203125q-0.34375 -0.203125 -0.484375 -0.515625q-0.140625 -0.328125 -0.140625 -1.34375l0 -3.890625l-0.828125 0l0 -0.875l0.828125 0l0 -1.671875l1.140625 -0.6875l0 2.359375l1.15625 0l0 0.875l-1.15625 0l0 3.953125q0 0.484375 0.0625 0.625q0.0625 0.140625 0.1875 0.21875q0.140625 0.078125 0.390625 0.078125q0.203125 0 0.515625 -0.03125zm11.687225 -2.25l1.234375 0.3125q-0.390625 1.515625 -1.40625 2.3125q-1.0 0.796875 -2.453125 0.796875q-1.5 0 -2.453125 -0.609375q-0.9375 -0.609375 -1.4375 -1.765625q-0.484375 -1.171875 -0.484375 -2.5q0 -1.453125 0.5625 -2.53125q0.5625 -1.09375 1.578125 -1.65625q1.03125 -0.5625 2.265625 -0.5625q1.390625 0 2.34375 0.71875q0.953125 0.703125 1.328125 2.0l-1.21875 0.28125q-0.328125 -1.015625 -0.9375 -1.46875q-0.609375 -0.46875 -1.546875 -0.46875q-1.078125 0 -1.796875 0.515625q-0.71875 0.515625 -1.015625 1.375q-0.28125 0.859375 -0.28125 1.78125q0 1.1875 0.34375 2.078125q0.34375 0.890625 1.0625 1.328125q0.734375 0.4375 1.59375 0.4375q1.03125 0 1.75 -0.59375q0.71875 -0.609375 0.96875 -1.78125zm2.4220276 -0.109375q0 -1.875 1.03125 -2.765625q0.875 -0.75 2.125 -0.75q1.390625 0 2.265625 0.90625q0.890625 0.90625 0.890625 2.515625q0 1.296875 -0.390625 2.046875q-0.390625 0.75 -1.140625 1.171875q-0.75 0.40625 -1.625 0.40625q-1.421875 0 -2.296875 -0.90625q-0.859375 -0.90625 -0.859375 -2.625zm1.171875 0q0 1.296875 0.5625 1.953125q0.5625 0.640625 1.421875 0.640625q0.84375 0 1.40625 -0.640625q0.578125 -0.65625 0.578125 -1.984375q0 -1.25 -0.578125 -1.890625q-0.5625 -0.65625 -1.40625 -0.65625q-0.859375 0 -1.421875 0.640625q-0.5625 0.640625 -0.5625 1.9375zm6.6624756 3.375l0 -6.734375l1.03125 0l0 0.953125q0.734375 -1.109375 2.140625 -1.109375q0.609375 0 1.109375 0.21875q0.515625 0.21875 0.765625 0.578125q0.265625 0.34375 0.359375 0.84375q0.0625 0.3125 0.0625 1.109375l0 4.140625l-1.140625 0l0 -4.09375q0 -0.703125 -0.140625 -1.046875q-0.125 -0.34375 -0.46875 -0.546875q-0.328125 -0.21875 -0.78125 -0.21875q-0.734375 0 -1.265625 0.46875q-0.53125 0.453125 -0.53125 1.75l0 3.6875l-1.140625 0zm9.912476 -1.015625l0.15625 1.0q-0.484375 0.109375 -0.859375 0.109375q-0.625 0 -0.96875 -0.203125q-0.34375 -0.203125 -0.484375 -0.515625q-0.140625 -0.328125 -0.140625 -1.34375l0 -3.890625l-0.828125 0l0 -0.875l0.828125 0l0 -1.671875l1.140625 -0.6875l0 2.359375l1.15625 0l0 0.875l-1.15625 0l0 3.953125q0 0.484375 0.0625 0.625q0.0625 0.140625 0.1875 0.21875q0.140625 0.078125 0.390625 0.078125q0.203125 0 0.515625 -0.03125zm5.5935974 0.1875q-0.625 0.53125 -1.21875 0.765625q-0.578125 0.21875 -1.25 0.21875q-1.125 0 -1.71875 -0.546875q-0.59375 -0.546875 -0.59375 -1.390625q0 -0.484375 0.21875 -0.890625q0.234375 -0.421875 0.59375 -0.671875q0.375 -0.25 0.828125 -0.375q0.328125 -0.078125 1.015625 -0.171875q1.375 -0.15625 2.03125 -0.390625q0.015625 -0.234375 0.015625 -0.296875q0 -0.703125 -0.328125 -0.984375q-0.4375 -0.390625 -1.296875 -0.390625q-0.8125 0 -1.203125 0.28125q-0.375 0.28125 -0.5625 1.0l-1.109375 -0.140625q0.140625 -0.71875 0.484375 -1.15625q0.359375 -0.453125 1.015625 -0.6875q0.671875 -0.234375 1.53125 -0.234375q0.875 0 1.40625 0.203125q0.546875 0.203125 0.796875 0.515625q0.25 0.296875 0.359375 0.765625q0.046875 0.296875 0.046875 1.0625l0 1.515625q0 1.59375 0.078125 2.015625q0.078125 0.421875 0.28125 0.8125l-1.1875 0q-0.171875 -0.359375 -0.234375 -0.828125zm-0.09375 -2.5625q-0.625 0.265625 -1.859375 0.4375q-0.703125 0.109375 -1.0 0.234375q-0.296875 0.125 -0.453125 0.375q-0.15625 0.234375 -0.15625 0.53125q0 0.453125 0.34375 0.765625q0.34375 0.296875 1.015625 0.296875q0.65625 0 1.171875 -0.28125q0.515625 -0.296875 0.765625 -0.796875q0.171875 -0.375 0.171875 -1.140625l0 -0.421875zm3.1156006 -4.59375l0 -1.328125l1.140625 0l0 1.328125l-1.140625 0zm0 7.984375l0 -6.734375l1.140625 0l0 6.734375l-1.140625 0zm2.96109 0l0 -6.734375l1.03125 0l0 0.953125q0.734375 -1.109375 2.140625 -1.109375q0.609375 0 1.109375 0.21875q0.515625 0.21875 0.765625 0.578125q0.265625 0.34375 0.359375 0.84375q0.0625 0.3125 0.0625 1.109375l0 4.140625l-1.140625 0l0 -4.09375q0 -0.703125 -0.140625 -1.046875q-0.125 -0.34375 -0.46875 -0.546875q-0.328125 -0.21875 -0.78125 -0.21875q-0.734375 0 -1.265625 0.46875q-0.53125 0.453125 -0.53125 1.75l0 3.6875l-1.140625 0zm12.021851 -2.171875l1.1875 0.140625q-0.28125 1.046875 -1.046875 1.625q-0.75 0.5625 -1.921875 0.5625q-1.484375 0 -2.359375 -0.90625q-0.859375 -0.921875 -0.859375 -2.5625q0 -1.703125 0.875 -2.640625q0.890625 -0.9375 2.28125 -0.9375q1.359375 0 2.203125 0.921875q0.859375 0.921875 0.859375 2.578125q0 0.109375 0 0.3125l-5.03125 0q0.0625 1.109375 0.625 1.703125q0.5625 0.59375 1.40625 0.59375q0.640625 0 1.078125 -0.328125q0.453125 -0.34375 0.703125 -1.0625zm-3.75 -1.84375l3.765625 0q-0.078125 -0.859375 -0.4375 -1.28125q-0.546875 -0.65625 -1.40625 -0.65625q-0.796875 0 -1.328125 0.53125q-0.53125 0.515625 -0.59375 1.40625zm6.5374756 4.015625l0 -6.734375l1.03125 0l0 1.015625q0.390625 -0.71875 0.71875 -0.9375q0.34375 -0.234375 0.734375 -0.234375q0.578125 0 1.171875 0.359375l-0.390625 1.0625q-0.421875 -0.25 -0.828125 -0.25q-0.375 0 -0.6875 0.234375q-0.296875 0.21875 -0.421875 0.625q-0.1875 0.609375 -0.1875 1.328125l0 3.53125l-1.140625 0z" fill-rule="nonzero"></path><path fill="#cfe2f3" d="m706.07086 192.7769l188.8819 0l0 140.00002l-188.8819 0z" fill-rule="nonzero"></path><path stroke="#000000" stroke-width="2.0" stroke-linejoin="round" stroke-linecap="butt" d="m706.07086 192.7769l188.8819 0l0 140.00002l-188.8819 0z" fill-rule="nonzero"></path><path fill="#000000" d="m760.81287 213.8394l0 -9.3125l1.21875 0l0 3.828125l4.84375 0l0 -3.828125l1.234375 0l0 9.3125l-1.234375 0l0 -4.390625l-4.84375 0l0 4.390625l-1.21875 0zm15.125122 -1.09375l0 1.09375l-6.15625 0q-0.015625 -0.40625 0.140625 -0.796875q0.234375 -0.625 0.75 -1.234375q0.515625 -0.609375 1.5 -1.40625q1.515625 -1.25 2.046875 -1.96875q0.53125 -0.734375 0.53125 -1.375q0 -0.6875 -0.484375 -1.140625q-0.484375 -0.46875 -1.265625 -0.46875q-0.828125 0 -1.328125 0.5q-0.484375 0.484375 -0.5 1.359375l-1.171875 -0.125q0.125 -1.3125 0.90625 -2.0q0.78125 -0.6875 2.109375 -0.6875q1.34375 0 2.125 0.75q0.78125 0.734375 0.78125 1.828125q0 0.5625 -0.234375 1.109375q-0.21875 0.53125 -0.75 1.140625q-0.53125 0.59375 -1.765625 1.625q-1.03125 0.859375 -1.328125 1.171875q-0.28125 0.3125 -0.46875 0.625l4.5625 0zm1.4906006 -3.4375q0 -2.3125 1.234375 -3.625q1.25 -1.3125 3.21875 -1.3125q1.296875 0 2.328125 0.625q1.03125 0.609375 1.578125 1.71875q0.546875 1.09375 0.546875 2.484375q0 1.421875 -0.578125 2.546875q-0.5625 1.109375 -1.609375 1.6875q-1.046875 0.5625 -2.265625 0.5625q-1.3125 0 -2.359375 -0.625q-1.03125 -0.640625 -1.5625 -1.734375q-0.53125 -1.109375 -0.53125 -2.328125zm1.265625 0.015625q0 1.6875 0.90625 2.65625q0.90625 0.96875 2.28125 0.96875q1.390625 0 2.28125 -0.96875q0.90625 -0.984375 0.90625 -2.78125q0 -1.140625 -0.390625 -1.984375q-0.390625 -0.859375 -1.125 -1.3125q-0.734375 -0.46875 -1.65625 -0.46875q-1.3125 0 -2.265625 0.90625q-0.9375 0.890625 -0.9375 2.984375zm13.398193 4.515625l0 -9.3125l1.21875 0l0 9.3125l-1.21875 0zm3.343628 0l0 -6.734375l1.03125 0l0 0.953125q0.734375 -1.109375 2.140625 -1.109375q0.609375 0 1.109375 0.21875q0.515625 0.21875 0.765625 0.578125q0.265625 0.34375 0.359375 0.84375q0.0625 0.3125 0.0625 1.109375l0 4.140625l-1.140625 0l0 -4.09375q0 -0.703125 -0.140625 -1.046875q-0.125 -0.34375 -0.46875 -0.546875q-0.328125 -0.21875 -0.78125 -0.21875q-0.734375 0 -1.265625 0.46875q-0.53125 0.453125 -0.53125 1.75l0 3.6875l-1.140625 0zm6.9593506 -2.015625l1.125 -0.171875q0.09375 0.671875 0.53125 1.046875q0.4375 0.359375 1.21875 0.359375q0.78125 0 1.15625 -0.3125q0.390625 -0.328125 0.390625 -0.765625q0 -0.390625 -0.34375 -0.609375q-0.234375 -0.15625 -1.171875 -0.390625q-1.25 -0.3125 -1.734375 -0.546875q-0.484375 -0.234375 -0.734375 -0.640625q-0.25 -0.40625 -0.25 -0.90625q0 -0.453125 0.203125 -0.828125q0.203125 -0.390625 0.5625 -0.640625q0.265625 -0.203125 0.71875 -0.328125q0.46875 -0.140625 1.0 -0.140625q0.78125 0 1.375 0.234375q0.609375 0.21875 0.890625 0.609375q0.296875 0.390625 0.40625 1.046875l-1.125 0.15625q-0.078125 -0.53125 -0.4375 -0.8125q-0.359375 -0.296875 -1.03125 -0.296875q-0.78125 0 -1.125 0.265625q-0.34375 0.25 -0.34375 0.609375q0 0.21875 0.140625 0.390625q0.140625 0.1875 0.4375 0.3125q0.171875 0.0625 1.015625 0.28125q1.21875 0.328125 1.6875 0.53125q0.484375 0.203125 0.75 0.609375q0.28125 0.390625 0.28125 0.96875q0 0.578125 -0.34375 1.078125q-0.328125 0.5 -0.953125 0.78125q-0.625 0.28125 -1.421875 0.28125q-1.3125 0 -2.0 -0.546875q-0.6875 -0.546875 -0.875 -1.625zm9.6171875 1.0l0.15625 1.0q-0.484375 0.109375 -0.859375 0.109375q-0.625 0 -0.96875 -0.203125q-0.34375 -0.203125 -0.484375 -0.515625q-0.140625 -0.328125 -0.140625 -1.34375l0 -3.890625l-0.828125 0l0 -0.875l0.828125 0l0 -1.671875l1.140625 -0.6875l0 2.359375l1.15625 0l0 0.875l-1.15625 0l0 3.953125q0 0.484375 0.0625 0.625q0.0625 0.140625 0.1875 0.21875q0.140625 0.078125 0.390625 0.078125q0.203125 0 0.515625 -0.03125zm5.593567 0.1875q-0.625 0.53125 -1.21875 0.765625q-0.578125 0.21875 -1.25 0.21875q-1.125 0 -1.71875 -0.546875q-0.59375 -0.546875 -0.59375 -1.390625q0 -0.484375 0.21875 -0.890625q0.234375 -0.421875 0.59375 -0.671875q0.375 -0.25 0.828125 -0.375q0.328125 -0.078125 1.015625 -0.171875q1.375 -0.15625 2.03125 -0.390625q0.015625 -0.234375 0.015625 -0.296875q0 -0.703125 -0.328125 -0.984375q-0.4375 -0.390625 -1.296875 -0.390625q-0.8125 0 -1.203125 0.28125q-0.375 0.28125 -0.5625 1.0l-1.109375 -0.140625q0.140625 -0.71875 0.484375 -1.15625q0.359375 -0.453125 1.015625 -0.6875q0.671875 -0.234375 1.53125 -0.234375q0.875 0 1.40625 0.203125q0.546875 0.203125 0.796875 0.515625q0.25 0.296875 0.359375 0.765625q0.046875 0.296875 0.046875 1.0625l0 1.515625q0 1.59375 0.078125 2.015625q0.078125 0.421875 0.28125 0.8125l-1.1875 0q-0.171875 -0.359375 -0.234375 -0.828125zm-0.09375 -2.5625q-0.625 0.265625 -1.859375 0.4375q-0.703125 0.109375 -1.0 0.234375q-0.296875 0.125 -0.453125 0.375q-0.15625 0.234375 -0.15625 0.53125q0 0.453125 0.34375 0.765625q0.34375 0.296875 1.015625 0.296875q0.65625 0 1.171875 -0.28125q0.515625 -0.296875 0.765625 -0.796875q0.171875 -0.375 0.171875 -1.140625l0 -0.421875zm3.1156006 3.390625l0 -6.734375l1.03125 0l0 0.953125q0.734375 -1.109375 2.140625 -1.109375q0.609375 0 1.109375 0.21875q0.515625 0.21875 0.765625 0.578125q0.265625 0.34375 0.359375 0.84375q0.0625 0.3125 0.0625 1.109375l0 4.140625l-1.140625 0l0 -4.09375q0 -0.703125 -0.140625 -1.046875q-0.125 -0.34375 -0.46875 -0.546875q-0.328125 -0.21875 -0.78125 -0.21875q-0.734375 0 -1.265625 0.46875q-0.53125 0.453125 -0.53125 1.75l0 3.6875l-1.140625 0zm11.803101 -2.46875l1.125 0.140625q-0.171875 1.171875 -0.9375 1.828125q-0.765625 0.65625 -1.859375 0.65625q-1.390625 0 -2.234375 -0.90625q-0.828125 -0.90625 -0.828125 -2.59375q0 -1.09375 0.359375 -1.90625q0.359375 -0.828125 1.09375 -1.234375q0.734375 -0.40625 1.609375 -0.40625q1.09375 0 1.796875 0.5625q0.703125 0.546875 0.890625 1.5625l-1.109375 0.171875q-0.15625 -0.671875 -0.5625 -1.015625q-0.390625 -0.34375 -0.96875 -0.34375q-0.859375 0 -1.40625 0.625q-0.53125 0.609375 -0.53125 1.953125q0 1.359375 0.515625 1.984375q0.515625 0.609375 1.359375 0.609375q0.671875 0 1.125 -0.40625q0.453125 -0.421875 0.5625 -1.28125zm6.8828125 0.296875l1.1875 0.140625q-0.28125 1.046875 -1.046875 1.625q-0.75 0.5625 -1.921875 0.5625q-1.484375 0 -2.359375 -0.90625q-0.859375 -0.921875 -0.859375 -2.5625q0 -1.703125 0.875 -2.640625q0.890625 -0.9375 2.28125 -0.9375q1.359375 0 2.203125 0.921875q0.859375 0.921875 0.859375 2.578125q0 0.109375 0 0.3125l-5.03125 0q0.0625 1.109375 0.625 1.703125q0.5625 0.59375 1.40625 0.59375q0.640625 0 1.078125 -0.328125q0.453125 -0.34375 0.703125 -1.0625zm-3.75 -1.84375l3.765625 0q-0.078125 -0.859375 -0.4375 -1.28125q-0.546875 -0.65625 -1.40625 -0.65625q-0.796875 0 -1.328125 0.53125q-0.53125 0.515625 -0.59375 1.40625z" fill-rule="nonzero"></path><path fill="#ffff00" d="m560.92566 262.77692l28.881836 -28.881897l0 14.440933l87.77954 0l0 -14.440933l28.881897 28.881897l-28.881897 28.881866l0 -14.4409485l-87.77954 0l0 14.4409485z" fill-rule="nonzero"></path><path stroke="#000000" stroke-width="2.0" stroke-linejoin="round" stroke-linecap="butt" d="m560.92566 262.77692l28.881836 -28.881897l0 14.440933l87.77954 0l0 -14.440933l28.881897 28.881897l-28.881897 28.881866l0 -14.4409485l-87.77954 0l0 14.4409485z" fill-rule="nonzero"></path><path fill="#000000" d="m616.9399 267.17535l0 -9.3125l4.125 0q1.25 0 1.890625 0.265625q0.65625 0.25 1.046875 0.890625q0.390625 0.625 0.390625 1.390625q0 0.984375 -0.65625 1.671875q-0.640625 0.671875 -1.96875 0.859375q0.484375 0.234375 0.734375 0.46875q0.546875 0.484375 1.03125 1.234375l1.609375 2.53125l-1.546875 0l-1.234375 -1.9375q-0.53125 -0.84375 -0.890625 -1.28125q-0.34375 -0.4375 -0.625 -0.609375q-0.265625 -0.1875 -0.546875 -0.265625q-0.21875 -0.03125 -0.6875 -0.03125l-1.4375 0l0 4.125l-1.234375 0zm1.234375 -5.203125l2.65625 0q0.84375 0 1.3125 -0.171875q0.484375 -0.171875 0.71875 -0.546875q0.25 -0.390625 0.25 -0.84375q0 -0.65625 -0.484375 -1.078125q-0.46875 -0.4375 -1.5 -0.4375l-2.953125 0l0 3.078125zm8.406433 5.203125l0 -9.3125l6.71875 0l0 1.109375l-5.484375 0l0 2.84375l5.140625 0l0 1.09375l-5.140625 0l0 3.171875l5.703125 0l0 1.09375l-6.9375 0zm8.4366455 -2.984375l1.171875 -0.109375q0.078125 0.703125 0.375 1.15625q0.3125 0.4375 0.9375 0.71875q0.640625 0.265625 1.4375 0.265625q0.703125 0 1.234375 -0.203125q0.546875 -0.203125 0.8125 -0.5625q0.265625 -0.375 0.265625 -0.8125q0 -0.4375 -0.265625 -0.765625q-0.25 -0.328125 -0.828125 -0.546875q-0.375 -0.140625 -1.65625 -0.453125q-1.28125 -0.3125 -1.796875 -0.578125q-0.671875 -0.34375 -1.0 -0.859375q-0.328125 -0.53125 -0.328125 -1.171875q0 -0.703125 0.390625 -1.3125q0.40625 -0.609375 1.171875 -0.921875q0.78125 -0.328125 1.71875 -0.328125q1.03125 0 1.8125 0.34375q0.796875 0.328125 1.21875 0.984375q0.4375 0.640625 0.46875 1.453125l-1.1875 0.09375q-0.09375 -0.890625 -0.640625 -1.328125q-0.546875 -0.453125 -1.625 -0.453125q-1.109375 0 -1.625 0.40625q-0.515625 0.40625 -0.515625 0.984375q0 0.5 0.359375 0.828125q0.359375 0.328125 1.859375 0.671875q1.5 0.328125 2.0625 0.578125q0.8125 0.375 1.1875 0.953125q0.390625 0.578125 0.390625 1.328125q0 0.734375 -0.421875 1.390625q-0.421875 0.65625 -1.21875 1.03125q-0.796875 0.359375 -1.796875 0.359375q-1.265625 0 -2.125 -0.359375q-0.84375 -0.375 -1.328125 -1.109375q-0.484375 -0.75 -0.515625 -1.671875zm11.686584 2.984375l0 -8.203125l-3.0625 0l0 -1.109375l7.375 0l0 1.109375l-3.078125 0l0 8.203125l-1.234375 0z" fill-rule="nonzero"></path><path fill="#ffff00" d="m226.7559 262.77692l28.881897 -28.881897l0 14.440933l87.779526 0l0 -14.440933l28.881897 28.881897l-28.881897 28.881866l0 -14.4409485l-87.779526 0l0 14.4409485z" fill-rule="nonzero"></path><path stroke="#000000" stroke-width="2.0" stroke-linejoin="round" stroke-linecap="butt" d="m226.7559 262.77692l28.881897 -28.881897l0 14.440933l87.779526 0l0 -14.440933l28.881897 28.881897l-28.881897 28.881866l0 -14.4409485l-87.779526 0l0 14.4409485z" fill-rule="nonzero"></path><path fill="#000000" d="m273.42136 263.5191l0 -1.078125l3.9375 -0.015625l0 3.453125q-0.90625 0.71875 -1.875 1.09375q-0.953125 0.359375 -1.96875 0.359375q-1.375 0 -2.5 -0.578125q-1.125 -0.59375 -1.703125 -1.703125q-0.5625 -1.109375 -0.5625 -2.484375q0 -1.359375 0.5625 -2.53125q0.578125 -1.1875 1.640625 -1.75q1.078125 -0.578125 2.453125 -0.578125q1.015625 0 1.828125 0.328125q0.8125 0.328125 1.28125 0.921875q0.46875 0.578125 0.703125 1.515625l-1.109375 0.296875q-0.203125 -0.703125 -0.515625 -1.109375q-0.3125 -0.40625 -0.890625 -0.640625q-0.578125 -0.25 -1.28125 -0.25q-0.84375 0 -1.46875 0.265625q-0.609375 0.25 -0.984375 0.671875q-0.375 0.40625 -0.59375 0.90625q-0.34375 0.875 -0.34375 1.875q0 1.25 0.421875 2.09375q0.421875 0.828125 1.234375 1.234375q0.828125 0.40625 1.75 0.40625q0.796875 0 1.5625 -0.296875q0.765625 -0.3125 1.15625 -0.671875l0 -1.734375l-2.734375 0zm7.63266 3.65625l-2.46875 -9.3125l1.265625 0l1.421875 6.109375q0.21875 0.953125 0.390625 1.90625q0.359375 -1.5 0.421875 -1.71875l1.765625 -6.296875l1.484375 0l1.328125 4.71875q0.5 1.75 0.734375 3.296875q0.171875 -0.890625 0.453125 -2.03125l1.46875 -5.984375l1.234375 0l-2.546875 9.3125l-1.1875 0l-1.96875 -7.09375q-0.25 -0.890625 -0.296875 -1.09375q-0.140625 0.640625 -0.265625 1.09375l-1.96875 7.09375l-1.265625 0zm13.329742 0l0 -8.203125l-3.0625 0l0 -1.109375l7.375 0l0 1.109375l-3.078125 0l0 8.203125l-1.234375 0zm9.484955 0l0 -9.3125l4.125 0q1.25 0 1.890625 0.265625q0.65625 0.25 1.046875 0.890625q0.390625 0.625 0.390625 1.390625q0 0.984375 -0.65625 1.671875q-0.640625 0.671875 -1.96875 0.859375q0.484375 0.234375 0.734375 0.46875q0.546875 0.484375 1.03125 1.234375l1.609375 2.53125l-1.546875 0l-1.234375 -1.9375q-0.53125 -0.84375 -0.890625 -1.28125q-0.34375 -0.4375 -0.625 -0.609375q-0.265625 -0.1875 -0.546875 -0.265625q-0.21875 -0.03125 -0.6875 -0.03125l-1.4375 0l0 4.125l-1.234375 0zm1.234375 -5.203125l2.65625 0q0.84375 0 1.3125 -0.171875q0.484375 -0.171875 0.71875 -0.546875q0.25 -0.390625 0.25 -0.84375q0 -0.65625 -0.484375 -1.078125q-0.46875 -0.4375 -1.5 -0.4375l-2.953125 0l0 3.078125zm8.375153 5.203125l0 -9.3125l3.515625 0q0.921875 0 1.40625 0.09375q0.6875 0.109375 1.15625 0.4375q0.46875 0.3125 0.75 0.890625q0.28125 0.578125 0.28125 1.28125q0 1.1875 -0.765625 2.015625q-0.75 0.8125 -2.71875 0.8125l-2.390625 0l0 3.78125l-1.234375 0zm1.234375 -4.875l2.40625 0q1.1875 0 1.6875 -0.4375q0.515625 -0.453125 0.515625 -1.265625q0 -0.578125 -0.296875 -0.984375q-0.296875 -0.421875 -0.78125 -0.5625q-0.3125 -0.078125 -1.15625 -0.078125l-2.375 0l0 3.328125zm14.29599 1.609375l1.234375 0.3125q-0.390625 1.515625 -1.40625 2.3125q-1.0 0.796875 -2.453125 0.796875q-1.5 0 -2.453125 -0.609375q-0.9375 -0.609375 -1.4375 -1.765625q-0.484375 -1.171875 -0.484375 -2.5q0 -1.453125 0.5625 -2.53125q0.5625 -1.09375 1.578125 -1.65625q1.03125 -0.5625 2.265625 -0.5625q1.390625 0 2.34375 0.71875q0.953125 0.703125 1.328125 2.0l-1.21875 0.28125q-0.328125 -1.015625 -0.9375 -1.46875q-0.609375 -0.46875 -1.546875 -0.46875q-1.078125 0 -1.796875 0.515625q-0.71875 0.515625 -1.015625 1.375q-0.28125 0.859375 -0.28125 1.78125q0 1.1875 0.34375 2.078125q0.34375 0.890625 1.0625 1.328125q0.734375 0.4375 1.59375 0.4375q1.03125 0 1.75 -0.59375q0.71875 -0.609375 0.96875 -1.78125z" fill-rule="nonzero"></path><path fill="#d9ead3" d="m486.67368 241.1076l74.23624 0l0 43.338593l-74.23624 0z" fill-rule="nonzero"></path><path stroke="#000000" stroke-width="2.0" stroke-linejoin="round" stroke-linecap="butt" d="m486.67368 241.1076l74.23624 0l0 43.338593l-74.23624 0z" fill-rule="nonzero"></path><path fill="#000000" d="m507.66214 255.85503l0 -1.078125l3.9375 -0.015625l0 3.4531403q-0.90625 0.71875 -1.875 1.09375q-0.953125 0.359375 -1.96875 0.359375q-1.375 0 -2.5 -0.578125q-1.125 -0.59375 -1.703125 -1.703125q-0.5625 -1.109375 -0.5625 -2.4843903q0 -1.359375 0.5625 -2.53125q0.578125 -1.1875 1.640625 -1.75q1.078125 -0.578125 2.453125 -0.578125q1.015625 0 1.828125 0.328125q0.8125 0.328125 1.28125 0.921875q0.46875 0.578125 0.703125 1.515625l-1.109375 0.296875q-0.203125 -0.703125 -0.515625 -1.109375q-0.3125 -0.40625 -0.890625 -0.640625q-0.578125 -0.25 -1.28125 -0.25q-0.84375 0 -1.46875 0.265625q-0.609375 0.25 -0.984375 0.671875q-0.375 0.40625 -0.59375 0.90625q-0.34375 0.875 -0.34375 1.875q0 1.2500153 0.421875 2.0937653q0.421875 0.828125 1.234375 1.234375q0.828125 0.40625 1.75 0.40625q0.796875 0 1.5625 -0.296875q0.765625 -0.3125 1.15625 -0.671875l0 -1.7343903l-2.734375 0zm5.44516 0.28126526q0 -1.8750153 1.03125 -2.7656403q0.875 -0.75 2.125 -0.75q1.390625 0 2.265625 0.90625q0.890625 0.90625 0.890625 2.5156403q0 1.296875 -0.390625 2.046875q-0.390625 0.75 -1.140625 1.171875q-0.75 0.40625 -1.625 0.40625q-1.421875 0 -2.296875 -0.90625q-0.859375 -0.90625 -0.859375 -2.625zm1.171875 0q0 1.296875 0.5625 1.953125q0.5625 0.640625 1.421875 0.640625q0.84375 0 1.40625 -0.640625q0.578125 -0.65625 0.578125 -1.984375q0 -1.2500153 -0.578125 -1.8906403q-0.5625 -0.65625 -1.40625 -0.65625q-0.859375 0 -1.421875 0.640625q-0.5625 0.640625 -0.5625 1.9375153zm6.2406006 0q0 -1.8750153 1.03125 -2.7656403q0.875 -0.75 2.125 -0.75q1.390625 0 2.265625 0.90625q0.890625 0.90625 0.890625 2.5156403q0 1.296875 -0.390625 2.046875q-0.390625 0.75 -1.140625 1.171875q-0.75 0.40625 -1.625 0.40625q-1.421875 0 -2.296875 -0.90625q-0.859375 -0.90625 -0.859375 -2.625zm1.171875 0q0 1.296875 0.5625 1.953125q0.5625 0.640625 1.421875 0.640625q0.84375 0 1.40625 -0.640625q0.578125 -0.65625 0.578125 -1.984375q0 -1.2500153 -0.578125 -1.8906403q-0.5625 -0.65625 -1.40625 -0.65625q-0.859375 0 -1.421875 0.640625q-0.5625 0.640625 -0.5625 1.9375153zm6.4437256 3.9375l1.125 0.15625q0.0625 0.515625 0.375 0.75q0.4375 0.328125 1.171875 0.328125q0.78125 0 1.21875 -0.328125q0.4375 -0.3125 0.578125 -0.890625q0.09375 -0.34375 0.09375 -1.453125q-0.75 0.875 -1.875 0.875q-1.390625 0 -2.15625 -1.0q-0.75 -1.0 -0.75 -2.40625q0 -0.96876526 0.34375 -1.7812653q0.359375 -0.8125 1.015625 -1.25q0.65625 -0.453125 1.5625 -0.453125q1.1875 0 1.96875 0.96875l0 -0.8125l1.046875 0l0 5.8125153q0 1.578125 -0.328125 2.234375q-0.3125 0.65625 -1.015625 1.03125q-0.6875 0.390625 -1.703125 0.390625q-1.203125 0 -1.953125 -0.546875q-0.734375 -0.53125 -0.71875 -1.625zm0.953125 -4.046875q0 1.3125 0.515625 1.921875q0.53125 0.609375 1.328125 0.609375q0.796875 0 1.328125 -0.59375q0.53125 -0.609375 0.53125 -1.90625q0 -1.2343903 -0.546875 -1.8593903q-0.546875 -0.640625 -1.328125 -0.640625q-0.765625 0 -1.296875 0.625q-0.53125 0.625 -0.53125 1.8437653zm6.6468506 3.484375l0 -9.312515l1.140625 0l0 9.312515l-1.140625 0zm7.6017456 -2.171875l1.1875 0.140625q-0.28125 1.046875 -1.046875 1.625q-0.75 0.5625 -1.921875 0.5625q-1.484375 0 -2.359375 -0.90625q-0.859375 -0.921875 -0.859375 -2.5625q0 -1.7031403 0.875 -2.6406403q0.890625 -0.9375 2.28125 -0.9375q1.359375 0 2.203125 0.921875q0.859375 0.921875 0.859375 2.5781403q0 0.109375 0 0.3125l-5.03125 0q0.0625 1.109375 0.625 1.703125q0.5625 0.59375 1.40625 0.59375q0.640625 0 1.078125 -0.328125q0.453125 -0.34375 0.703125 -1.0625zm-3.75 -1.8437653l3.765625 0q-0.078125 -0.859375 -0.4375 -1.28125q-0.546875 -0.65625 -1.40625 -0.65625q-0.796875 0 -1.328125 0.53125q-0.53125 0.515625 -0.59375 1.40625z" fill-rule="nonzero"></path><path fill="#000000" d="m509.52664 271.18317l0 -1.078125l3.9375305 -0.015625l0 3.453125q-0.90625 0.71875 -1.8750305 1.09375q-0.953125 0.359375 -1.96875 0.359375q-1.375 0 -2.5 -0.578125q-1.125 -0.59375 -1.703125 -1.703125q-0.5625 -1.109375 -0.5625 -2.484375q0 -1.359375 0.5625 -2.53125q0.578125 -1.1875 1.640625 -1.75q1.078125 -0.578125 2.453125 -0.578125q1.015625 0 1.828125 0.328125q0.8125305 0.328125 1.2812805 0.921875q0.46875 0.578125 0.703125 1.515625l-1.109375 0.296875q-0.203125 -0.703125 -0.5156555 -1.109375q-0.3125 -0.40625 -0.890625 -0.640625q-0.578125 -0.25 -1.28125 -0.25q-0.84375 0 -1.46875 0.265625q-0.609375 0.25 -0.984375 0.671875q-0.375 0.40625 -0.59375 0.90625q-0.34375 0.875 -0.34375 1.875q0 1.25 0.421875 2.09375q0.421875 0.828125 1.234375 1.234375q0.828125 0.40625 1.75 0.40625q0.796875 0 1.5625 -0.296875q0.765625 -0.3125 1.1562805 -0.671875l0 -1.734375l-2.7344055 0zm5.585785 0.671875l1.171875 -0.109375q0.078125 0.703125 0.375 1.15625q0.3125 0.4375 0.9375 0.71875q0.640625 0.265625 1.4375 0.265625q0.703125 0 1.234375 -0.203125q0.546875 -0.203125 0.8125 -0.5625q0.265625 -0.375 0.265625 -0.8125q0 -0.4375 -0.265625 -0.765625q-0.25 -0.328125 -0.828125 -0.546875q-0.375 -0.140625 -1.65625 -0.453125q-1.28125 -0.3125 -1.796875 -0.578125q-0.671875 -0.34375 -1.0 -0.859375q-0.328125 -0.53125 -0.328125 -1.171875q0 -0.703125 0.390625 -1.3125q0.40625 -0.609375 1.171875 -0.921875q0.78125 -0.328125 1.71875 -0.328125q1.03125 0 1.8125 0.34375q0.796875 0.328125 1.21875 0.984375q0.4375 0.640625 0.46875 1.453125l-1.1875 0.09375q-0.09375 -0.890625 -0.640625 -1.328125q-0.546875 -0.453125 -1.625 -0.453125q-1.109375 0 -1.625 0.40625q-0.515625 0.40625 -0.515625 0.984375q0 0.5 0.359375 0.828125q0.359375 0.328125 1.859375 0.671875q1.5 0.328125 2.0625 0.578125q0.8125 0.375 1.1875 0.953125q0.390625 0.578125 0.390625 1.328125q0 0.734375 -0.421875 1.390625q-0.421875 0.65625 -1.21875 1.03125q-0.796875 0.359375 -1.796875 0.359375q-1.265625 0 -2.125 -0.359375q-0.84375 -0.375 -1.328125 -1.109375q-0.484375 -0.75 -0.515625 -1.671875zm8.9366455 -1.546875q0 -2.3125 1.234375 -3.625q1.25 -1.3125 3.21875 -1.3125q1.296875 0 2.328125 0.625q1.03125 0.609375 1.578125 1.71875q0.546875 1.09375 0.546875 2.484375q0 1.421875 -0.578125 2.546875q-0.5625 1.109375 -1.609375 1.6875q-1.046875 0.5625 -2.265625 0.5625q-1.3125 0 -2.359375 -0.625q-1.03125 -0.640625 -1.5625 -1.734375q-0.53125 -1.109375 -0.53125 -2.328125zm1.265625 0.015625q0 1.6875 0.90625 2.65625q0.90625 0.96875 2.28125 0.96875q1.390625 0 2.28125 -0.96875q0.90625 -0.984375 0.90625 -2.78125q0 -1.140625 -0.390625 -1.984375q-0.390625 -0.859375 -1.125 -1.3125q-0.734375 -0.46875 -1.65625 -0.46875q-1.3125 0 -2.265625 0.90625q-0.9375 0.890625 -0.9375 2.984375zm9.460815 4.515625l0 -9.3125l1.265625 0l4.890625 7.3125l0 -7.3125l1.1875 0l0 9.3125l-1.265625 0l-4.890625 -7.3125l0 7.3125l-1.1875 0z" fill-rule="nonzero"></path><path fill="#d9ead3" d="m372.29922 236.66667l74.236206 0l0 52.220474l-74.236206 0z" fill-rule="nonzero"></path><path stroke="#000000" stroke-width="2.0" stroke-linejoin="round" stroke-linecap="butt" d="m372.29922 236.66667l74.236206 0l0 52.220474l-74.236206 0z" fill-rule="nonzero"></path><path fill="#000000" d="m399.23264 248.19096l0 -1.078125l3.9375 -0.015625l0 3.453125q-0.90625 0.71875 -1.875 1.09375q-0.953125 0.359375 -1.96875 0.359375q-1.375 0 -2.5 -0.578125q-1.125 -0.59375 -1.703125 -1.703125q-0.5625 -1.109375 -0.5625 -2.484375q0 -1.359375 0.5625 -2.53125q0.578125 -1.1875 1.640625 -1.75q1.078125 -0.578125 2.453125 -0.578125q1.015625 0 1.828125 0.328125q0.8125 0.328125 1.28125 0.921875q0.46875 0.578125 0.703125 1.515625l-1.109375 0.296875q-0.203125 -0.703125 -0.515625 -1.109375q-0.3125 -0.40625 -0.890625 -0.640625q-0.578125 -0.25 -1.28125 -0.25q-0.84375 0 -1.46875 0.265625q-0.609375 0.25 -0.984375 0.671875q-0.375 0.40625 -0.59375 0.90625q-0.34375 0.875 -0.34375 1.875q0 1.25 0.421875 2.09375q0.421875 0.828125 1.234375 1.234375q0.828125 0.40625 1.75 0.40625q0.796875 0 1.5625 -0.296875q0.765625 -0.3125 1.15625 -0.671875l0 -1.734375l-2.734375 0zm7.63266 3.65625l-2.46875 -9.3125l1.265625 0l1.421875 6.109375q0.21875 0.953125 0.390625 1.90625q0.359375 -1.5 0.421875 -1.71875l1.765625 -6.296875l1.484375 0l1.328125 4.71875q0.5 1.75 0.734375 3.296875q0.171875 -0.890625 0.453125 -2.03125l1.46875 -5.984375l1.234375 0l-2.546875 9.3125l-1.1875 0l-1.96875 -7.09375q-0.25 -0.890625 -0.296875 -1.09375q-0.140625 0.640625 -0.265625 1.09375l-1.96875 7.09375l-1.265625 0zm13.329742 0l0 -8.203125l-3.0625 0l0 -1.109375l7.375 0l0 1.109375l-3.078125 0l0 8.203125l-1.234375 0z" fill-rule="nonzero"></path><path fill="#000000" d="m391.2545 267.17535l3.578125 -9.3125l1.3125 0l3.8125 9.3125l-1.40625 0l-1.078125 -2.8125l-3.890625 0l-1.03125 2.8125l-1.296875 0zm2.6875 -3.828125l3.15625 0l-0.984375 -2.578125q-0.4375 -1.171875 -0.65625 -1.921875q-0.171875 0.890625 -0.5 1.78125l-1.015625 2.71875zm6.6241455 1.8125l1.125 -0.171875q0.09375 0.671875 0.53125 1.046875q0.4375 0.359375 1.21875 0.359375q0.78125 0 1.15625 -0.3125q0.390625 -0.328125 0.390625 -0.765625q0 -0.390625 -0.34375 -0.609375q-0.234375 -0.15625 -1.171875 -0.390625q-1.25 -0.3125 -1.734375 -0.546875q-0.484375 -0.234375 -0.734375 -0.640625q-0.25 -0.40625 -0.25 -0.90625q0 -0.453125 0.203125 -0.828125q0.203125 -0.390625 0.5625 -0.640625q0.265625 -0.203125 0.71875 -0.328125q0.46875 -0.140625 1.0 -0.140625q0.78125 0 1.375 0.234375q0.609375 0.21875 0.890625 0.609375q0.296875 0.390625 0.40625 1.046875l-1.125 0.15625q-0.078125 -0.53125 -0.4375 -0.8125q-0.359375 -0.296875 -1.03125 -0.296875q-0.78125 0 -1.125 0.265625q-0.34375 0.25 -0.34375 0.609375q0 0.21875 0.140625 0.390625q0.140625 0.1875 0.4375 0.3125q0.171875 0.0625 1.015625 0.28125q1.21875 0.328125 1.6875 0.53125q0.484375 0.203125 0.75 0.609375q0.28125 0.390625 0.28125 0.96875q0 0.578125 -0.34375 1.078125q-0.328125 0.5 -0.953125 0.78125q-0.625 0.28125 -1.421875 0.28125q-1.3125 0 -2.0 -0.546875q-0.6875 -0.546875 -0.875 -1.625zm7.0703125 4.609375l-0.140625 -1.0625q0.375 0.09375 0.65625 0.09375q0.390625 0 0.609375 -0.125q0.234375 -0.125 0.375 -0.359375q0.109375 -0.171875 0.359375 -0.84375q0.03125 -0.09375 0.09375 -0.28125l-2.5625 -6.75l1.234375 0l1.40625 3.890625q0.265625 0.75 0.484375 1.5625q0.203125 -0.78125 0.46875 -1.53125l1.453125 -3.921875l1.140625 0l-2.5625 6.84375q-0.421875 1.109375 -0.640625 1.53125q-0.3125 0.5625 -0.703125 0.828125q-0.390625 0.265625 -0.9375 0.265625q-0.328125 0 -0.734375 -0.140625zm6.7109375 -2.59375l0 -6.734375l1.03125 0l0 0.953125q0.734375 -1.109375 2.140625 -1.109375q0.609375 0 1.109375 0.21875q0.515625 0.21875 0.765625 0.578125q0.265625 0.34375 0.359375 0.84375q0.0625 0.3125 0.0625 1.109375l0 4.140625l-1.140625 0l0 -4.09375q0 -0.703125 -0.140625 -1.046875q-0.125 -0.34375 -0.46875 -0.546875q-0.328125 -0.21875 -0.78125 -0.21875q-0.734375 0 -1.265625 0.46875q-0.53125 0.453125 -0.53125 1.75l0 3.6875l-1.140625 0zm11.803101 -2.46875l1.125 0.140625q-0.171875 1.171875 -0.9375 1.828125q-0.765625 0.65625 -1.859375 0.65625q-1.390625 0 -2.234375 -0.90625q-0.828125 -0.90625 -0.828125 -2.59375q0 -1.09375 0.359375 -1.90625q0.359375 -0.828125 1.09375 -1.234375q0.734375 -0.40625 1.609375 -0.40625q1.09375 0 1.796875 0.5625q0.703125 0.546875 0.890625 1.5625l-1.109375 0.171875q-0.15625 -0.671875 -0.5625 -1.015625q-0.390625 -0.34375 -0.96875 -0.34375q-0.859375 0 -1.40625 0.625q-0.53125 0.609375 -0.53125 1.953125q0 1.359375 0.515625 1.984375q0.515625 0.609375 1.359375 0.609375q0.671875 0 1.125 -0.40625q0.453125 -0.421875 0.5625 -1.28125z" fill-rule="nonzero"></path><path fill="#000000" d="m387.7743 279.5191l1.171875 -0.109375q0.078125 0.703125 0.375 1.15625q0.3125 0.4375 0.9375 0.71875q0.640625 0.265625 1.4375 0.265625q0.703125 0 1.234375 -0.203125q0.546875 -0.203125 0.8125 -0.5625q0.265625 -0.375 0.265625 -0.8125q0 -0.4375 -0.265625 -0.765625q-0.25 -0.328125 -0.828125 -0.546875q-0.375 -0.140625 -1.65625 -0.453125q-1.28125 -0.3125 -1.796875 -0.578125q-0.671875 -0.34375 -1.0 -0.859375q-0.328125 -0.53125 -0.328125 -1.171875q0 -0.703125 0.390625 -1.3125q0.40625 -0.609375 1.171875 -0.921875q0.78125 -0.328125 1.71875 -0.328125q1.03125 0 1.8125 0.34375q0.796875 0.328125 1.21875 0.984375q0.4375 0.640625 0.46875 1.453125l-1.1875 0.09375q-0.09375 -0.890625 -0.640625 -1.328125q-0.546875 -0.453125 -1.625 -0.453125q-1.109375 0 -1.625 0.40625q-0.515625 0.40625 -0.515625 0.984375q0 0.5 0.359375 0.828125q0.359375 0.328125 1.859375 0.671875q1.5 0.328125 2.0625 0.578125q0.8125 0.375 1.1875 0.953125q0.390625 0.578125 0.390625 1.328125q0 0.734375 -0.421875 1.390625q-0.421875 0.65625 -1.21875 1.03125q-0.796875 0.359375 -1.796875 0.359375q-1.265625 0 -2.125 -0.359375q-0.84375 -0.375 -1.328125 -1.109375q-0.484375 -0.75 -0.515625 -1.671875zm13.7803955 0.8125l1.1875 0.140625q-0.28125 1.046875 -1.046875 1.625q-0.75 0.5625 -1.921875 0.5625q-1.484375 0 -2.359375 -0.90625q-0.859375 -0.921875 -0.859375 -2.5625q0 -1.703125 0.875 -2.640625q0.890625 -0.9375 2.28125 -0.9375q1.359375 0 2.203125 0.921875q0.859375 0.921875 0.859375 2.578125q0 0.109375 0 0.3125l-5.03125 0q0.0625 1.109375 0.625 1.703125q0.5625 0.59375 1.40625 0.59375q0.640625 0 1.078125 -0.328125q0.453125 -0.34375 0.703125 -1.0625zm-3.75 -1.84375l3.765625 0q-0.078125 -0.859375 -0.4375 -1.28125q-0.546875 -0.65625 -1.40625 -0.65625q-0.796875 0 -1.328125 0.53125q-0.53125 0.515625 -0.59375 1.40625zm6.5374756 4.015625l0 -6.734375l1.03125 0l0 1.015625q0.390625 -0.71875 0.71875 -0.9375q0.34375 -0.234375 0.734375 -0.234375q0.578125 0 1.171875 0.359375l-0.390625 1.0625q-0.421875 -0.25 -0.828125 -0.25q-0.375 0 -0.6875 0.234375q-0.296875 0.21875 -0.421875 0.625q-0.1875 0.609375 -0.1875 1.328125l0 3.53125l-1.140625 0zm6.3289795 0l-2.5625 -6.734375l1.203125 0l1.4375 4.03125q0.234375 0.65625 0.4375 1.359375q0.15625 -0.53125 0.421875 -1.28125l1.5 -4.109375l1.171875 0l-2.546875 6.734375l-1.0625 0zm4.7890625 -7.984375l0 -1.328125l1.140625 0l0 1.328125l-1.140625 0zm0 7.984375l0 -6.734375l1.140625 0l0 6.734375l-1.140625 0zm7.351715 -2.46875l1.125 0.140625q-0.171875 1.171875 -0.9375 1.828125q-0.765625 0.65625 -1.859375 0.65625q-1.390625 0 -2.234375 -0.90625q-0.828125 -0.90625 -0.828125 -2.59375q0 -1.09375 0.359375 -1.90625q0.359375 -0.828125 1.09375 -1.234375q0.734375 -0.40625 1.609375 -0.40625q1.09375 0 1.796875 0.5625q0.703125 0.546875 0.890625 1.5625l-1.109375 0.171875q-0.15625 -0.671875 -0.5625 -1.015625q-0.390625 -0.34375 -0.96875 -0.34375q-0.859375 0 -1.40625 0.625q-0.53125 0.609375 -0.53125 1.953125q0 1.359375 0.515625 1.984375q0.515625 0.609375 1.359375 0.609375q0.671875 0 1.125 -0.40625q0.453125 -0.421875 0.5625 -1.28125zm6.8828125 0.296875l1.1875 0.140625q-0.28125 1.046875 -1.046875 1.625q-0.75 0.5625 -1.921875 0.5625q-1.484375 0 -2.359375 -0.90625q-0.859375 -0.921875 -0.859375 -2.5625q0 -1.703125 0.875 -2.640625q0.890625 -0.9375 2.28125 -0.9375q1.359375 0 2.203125 0.921875q0.859375 0.921875 0.859375 2.578125q0 0.109375 0 0.3125l-5.03125 0q0.0625 1.109375 0.625 1.703125q0.5625 0.59375 1.40625 0.59375q0.640625 0 1.078125 -0.328125q0.453125 -0.34375 0.703125 -1.0625zm-3.75 -1.84375l3.765625 0q-0.078125 -0.859375 -0.4375 -1.28125q-0.546875 -0.65625 -1.40625 -0.65625q-0.796875 0 -1.328125 0.53125q-0.53125 0.515625 -0.59375 1.40625z" fill-rule="nonzero"></path><path fill="#d9ead3" d="m136.0385 234.99738l90.708664 0l0 55.55905l-90.708664 0z" fill-rule="nonzero"></path><path stroke="#000000" stroke-width="2.0" stroke-linejoin="round" stroke-linecap="butt" d="m136.0385 234.99738l90.708664 0l0 55.55905l-90.708664 0z" fill-rule="nonzero"></path><path fill="#000000" d="m171.20813 248.19096l0 -1.078125l3.9375 -0.015625l0 3.453125q-0.90625 0.71875 -1.875 1.09375q-0.953125 0.359375 -1.96875 0.359375q-1.375 0 -2.5 -0.578125q-1.125 -0.59375 -1.703125 -1.703125q-0.5625 -1.109375 -0.5625 -2.484375q0 -1.359375 0.5625 -2.53125q0.578125 -1.1875 1.640625 -1.75q1.078125 -0.578125 2.453125 -0.578125q1.015625 0 1.828125 0.328125q0.8125 0.328125 1.28125 0.921875q0.46875 0.578125 0.703125 1.515625l-1.109375 0.296875q-0.203125 -0.703125 -0.515625 -1.109375q-0.3125 -0.40625 -0.890625 -0.640625q-0.578125 -0.25 -1.28125 -0.25q-0.84375 0 -1.46875 0.265625q-0.609375 0.25 -0.984375 0.671875q-0.375 0.40625 -0.59375 0.90625q-0.34375 0.875 -0.34375 1.875q0 1.25 0.421875 2.09375q0.421875 0.828125 1.234375 1.234375q0.828125 0.40625 1.75 0.40625q0.796875 0 1.5625 -0.296875q0.765625 -0.3125 1.15625 -0.671875l0 -1.734375l-2.734375 0zm7.632675 3.65625l-2.46875 -9.3125l1.265625 0l1.421875 6.109375q0.21875 0.953125 0.390625 1.90625q0.359375 -1.5 0.421875 -1.71875l1.765625 -6.296875l1.484375 0l1.328125 4.71875q0.5 1.75 0.734375 3.296875q0.171875 -0.890625 0.453125 -2.03125l1.46875 -5.984375l1.234375 0l-2.546875 9.3125l-1.1875 0l-1.96875 -7.09375q-0.25 -0.890625 -0.296875 -1.09375q-0.140625 0.640625 -0.265625 1.09375l-1.96875 7.09375l-1.265625 0zm13.329727 0l0 -8.203125l-3.0625 0l0 -1.109375l7.375 0l0 1.109375l-3.078125 0l0 8.203125l-1.234375 0z" fill-rule="nonzero"></path><path fill="#000000" d="m155.26057 263.51907l0 -1.078125l3.9375 -0.015625l0 3.453125q-0.90625 0.71875 -1.875 1.09375q-0.953125 0.359375 -1.96875 0.359375q-1.375 0 -2.5 -0.578125q-1.125 -0.59375 -1.703125 -1.703125q-0.5625 -1.109375 -0.5625 -2.484375q0 -1.359375 0.5625 -2.53125q0.578125 -1.1875 1.640625 -1.75q1.078125 -0.578125 2.453125 -0.578125q1.015625 0 1.828125 0.328125q0.8125 0.328125 1.28125 0.921875q0.46875 0.578125 0.703125 1.515625l-1.109375 0.296875q-0.203125 -0.703125 -0.515625 -1.109375q-0.3125 -0.40625 -0.890625 -0.640625q-0.578125 -0.25 -1.28125 -0.25q-0.84375 0 -1.46875 0.265625q-0.609375 0.25 -0.984375 0.671875q-0.375 0.40625 -0.59375 0.90625q-0.34375 0.875 -0.34375 1.875q0 1.25 0.421875 2.09375q0.421875 0.828125 1.234375 1.234375q0.828125 0.40625 1.75 0.40625q0.796875 0 1.5625 -0.296875q0.765625 -0.3125 1.15625 -0.671875l0 -1.734375l-2.734375 0zm10.476425 1.484375l1.1875 0.140625q-0.28125 1.046875 -1.046875 1.625q-0.75 0.5625 -1.921875 0.5625q-1.484375 0 -2.359375 -0.90625q-0.859375 -0.921875 -0.859375 -2.5625q0 -1.703125 0.875 -2.640625q0.890625 -0.9375 2.28125 -0.9375q1.359375 0 2.203125 0.921875q0.859375 0.921875 0.859375 2.578125q0 0.109375 0 0.3125l-5.03125 0q0.0625 1.109375 0.625 1.703125q0.5625 0.59375 1.40625 0.59375q0.640625 0 1.078125 -0.328125q0.453125 -0.34375 0.703125 -1.0625zm-3.75 -1.84375l3.765625 0q-0.078125 -0.859375 -0.4375 -1.28125q-0.546875 -0.65625 -1.40625 -0.65625q-0.796875 0 -1.328125 0.53125q-0.53125 0.515625 -0.59375 1.40625zm6.5531006 4.015625l0 -6.734375l1.03125 0l0 0.953125q0.734375 -1.109375 2.140625 -1.109375q0.609375 0 1.109375 0.21875q0.515625 0.21875 0.765625 0.578125q0.265625 0.34375 0.359375 0.84375q0.0625 0.3125 0.0625 1.109375l0 4.140625l-1.140625 0l0 -4.09375q0 -0.703125 -0.140625 -1.046875q-0.125 -0.34375 -0.46875 -0.546875q-0.328125 -0.21875 -0.78125 -0.21875q-0.734375 0 -1.265625 0.46875q-0.53125 0.453125 -0.53125 1.75l0 3.6875l-1.140625 0zm12.021851 -2.171875l1.1875 0.140625q-0.28125 1.046875 -1.046875 1.625q-0.75 0.5625 -1.921875 0.5625q-1.484375 0 -2.359375 -0.90625q-0.859375 -0.921875 -0.859375 -2.5625q0 -1.703125 0.875 -2.640625q0.890625 -0.9375 2.28125 -0.9375q1.359375 0 2.203125 0.921875q0.859375 0.921875 0.859375 2.578125q0 0.109375 0 0.3125l-5.03125 0q0.0625 1.109375 0.625 1.703125q0.5625 0.59375 1.40625 0.59375q0.640625 0 1.078125 -0.328125q0.453125 -0.34375 0.703125 -1.0625zm-3.75 -1.84375l3.765625 0q-0.078125 -0.859375 -0.4375 -1.28125q-0.546875 -0.65625 -1.40625 -0.65625q-0.796875 0 -1.328125 0.53125q-0.53125 0.515625 -0.59375 1.40625zm6.5374756 4.015625l0 -6.734375l1.03125 0l0 1.015625q0.390625 -0.71875 0.71875 -0.9375q0.34375 -0.234375 0.734375 -0.234375q0.578125 0 1.171875 0.359375l-0.390625 1.0625q-0.421875 -0.25 -0.828125 -0.25q-0.375 0 -0.6875 0.234375q-0.296875 0.21875 -0.421875 0.625q-0.1875 0.609375 -0.1875 1.328125l0 3.53125l-1.140625 0zm8.84462 -0.828125q-0.625 0.53125 -1.21875 0.765625q-0.578125 0.21875 -1.25 0.21875q-1.125 0 -1.71875 -0.546875q-0.59375 -0.546875 -0.59375 -1.390625q0 -0.484375 0.21875 -0.890625q0.234375 -0.421875 0.59375 -0.671875q0.375 -0.25 0.828125 -0.375q0.328125 -0.078125 1.015625 -0.171875q1.375 -0.15625 2.03125 -0.390625q0.015625 -0.234375 0.015625 -0.296875q0 -0.703125 -0.328125 -0.984375q-0.4375 -0.390625 -1.296875 -0.390625q-0.8125 0 -1.203125 0.28125q-0.375 0.28125 -0.5625 1.0l-1.109375 -0.140625q0.140625 -0.71875 0.484375 -1.15625q0.359375 -0.453125 1.015625 -0.6875q0.671875 -0.234375 1.53125 -0.234375q0.875 0 1.40625 0.203125q0.546875 0.203125 0.796875 0.515625q0.25 0.296875 0.359375 0.765625q0.046875 0.296875 0.046875 1.0625l0 1.515625q0 1.59375 0.078125 2.015625q0.078125 0.421875 0.28125 0.8125l-1.1875 0q-0.171875 -0.359375 -0.234375 -0.828125zm-0.09375 -2.5625q-0.625 0.265625 -1.859375 0.4375q-0.703125 0.109375 -1.0 0.234375q-0.296875 0.125 -0.453125 0.375q-0.15625 0.234375 -0.15625 0.53125q0 0.453125 0.34375 0.765625q0.34375 0.296875 1.015625 0.296875q0.65625 0 1.171875 -0.28125q0.515625 -0.296875 0.765625 -0.796875q0.171875 -0.375 0.171875 -1.140625l0 -0.421875zm5.6156006 2.375l0.15625 1.0q-0.484375 0.109375 -0.859375 0.109375q-0.625 0 -0.96875 -0.203125q-0.34375 -0.203125 -0.484375 -0.515625q-0.140625 -0.328125 -0.140625 -1.34375l0 -3.890625l-0.828125 0l0 -0.875l0.828125 0l0 -1.671875l1.140625 -0.6875l0 2.359375l1.15625 0l0 0.875l-1.15625 0l0 3.953125q0 0.484375 0.0625 0.625q0.0625 0.140625 0.1875 0.21875q0.140625 0.078125 0.390625 0.078125q0.203125 0 0.515625 -0.03125zm5.8123627 -1.15625l1.1875 0.140625q-0.28125 1.046875 -1.046875 1.625q-0.75 0.5625 -1.921875 0.5625q-1.484375 0 -2.359375 -0.90625q-0.859375 -0.921875 -0.859375 -2.5625q0 -1.703125 0.875 -2.640625q0.890625 -0.9375 2.28125 -0.9375q1.359375 0 2.203125 0.921875q0.859375 0.921875 0.859375 2.578125q0 0.109375 0 0.3125l-5.03125 0q0.0625 1.109375 0.625 1.703125q0.5625 0.59375 1.40625 0.59375q0.640625 0 1.078125 -0.328125q0.453125 -0.34375 0.703125 -1.0625zm-3.75 -1.84375l3.765625 0q-0.078125 -0.859375 -0.4375 -1.28125q-0.546875 -0.65625 -1.40625 -0.65625q-0.796875 0 -1.328125 0.53125q-0.53125 0.515625 -0.59375 1.40625zm10.928101 4.015625l0 -0.84375q-0.640625 1.0 -1.890625 1.0q-0.796875 0 -1.484375 -0.4375q-0.671875 -0.453125 -1.046875 -1.25q-0.375 -0.796875 -0.375 -1.828125q0 -1.015625 0.34375 -1.828125q0.34375 -0.828125 1.015625 -1.265625q0.671875 -0.4375 1.5 -0.4375q0.609375 0 1.078125 0.265625q0.484375 0.25 0.78125 0.65625l0 -3.34375l1.140625 0l0 9.3125l-1.0625 0zm-3.609375 -3.359375q0 1.296875 0.53125 1.9375q0.546875 0.640625 1.296875 0.640625q0.75 0 1.265625 -0.609375q0.53125 -0.625 0.53125 -1.875q0 -1.390625 -0.53125 -2.03125q-0.53125 -0.65625 -1.3125 -0.65625q-0.765625 0 -1.28125 0.625q-0.5 0.625 -0.5 1.96875z" fill-rule="nonzero"></path><path fill="#000000" d="m151.76976 279.86282l1.109375 -0.15625q0.046875 1.0625 0.390625 1.46875q0.359375 0.390625 1.0 0.390625q0.453125 0 0.78125 -0.203125q0.34375 -0.21875 0.46875 -0.578125q0.140625 -0.375 0.140625 -1.171875l0 -6.421875l1.21875 0l0 6.34375q0 1.171875 -0.28125 1.8125q-0.28125 0.640625 -0.890625 0.984375q-0.609375 0.328125 -1.4375 0.328125q-1.21875 0 -1.875 -0.703125q-0.65625 -0.703125 -0.625 -2.09375zm11.5390625 1.8125q-0.625 0.53125 -1.21875 0.765625q-0.578125 0.21875 -1.25 0.21875q-1.125 0 -1.71875 -0.546875q-0.59375 -0.546875 -0.59375 -1.390625q0 -0.484375 0.21875 -0.890625q0.234375 -0.421875 0.59375 -0.671875q0.375 -0.25 0.828125 -0.375q0.328125 -0.078125 1.015625 -0.171875q1.375 -0.15625 2.03125 -0.390625q0.015625 -0.234375 0.015625 -0.296875q0 -0.703125 -0.328125 -0.984375q-0.4375 -0.390625 -1.296875 -0.390625q-0.8125 0 -1.203125 0.28125q-0.375 0.28125 -0.5625 1.0l-1.109375 -0.140625q0.140625 -0.71875 0.484375 -1.15625q0.359375 -0.453125 1.015625 -0.6875q0.671875 -0.234375 1.53125 -0.234375q0.875 0 1.40625 0.203125q0.546875 0.203125 0.796875 0.515625q0.25 0.296875 0.359375 0.765625q0.046875 0.296875 0.046875 1.0625l0 1.515625q0 1.59375 0.078125 2.015625q0.078125 0.421875 0.28125 0.8125l-1.1875 0q-0.171875 -0.359375 -0.234375 -0.828125zm-0.09375 -2.5625q-0.625 0.265625 -1.859375 0.4375q-0.703125 0.109375 -1.0 0.234375q-0.296875 0.125 -0.453125 0.375q-0.15625 0.234375 -0.15625 0.53125q0 0.453125 0.34375 0.765625q0.34375 0.296875 1.015625 0.296875q0.65625 0 1.171875 -0.28125q0.515625 -0.296875 0.765625 -0.796875q0.171875 -0.375 0.171875 -1.140625l0 -0.421875zm4.9906006 3.390625l-2.5625 -6.734375l1.203125 0l1.4375 4.03125q0.234375 0.65625 0.4375 1.359375q0.15625 -0.53125 0.421875 -1.28125l1.5 -4.109375l1.171875 0l-2.546875 6.734375l-1.0625 0zm9.1796875 -0.828125q-0.625 0.53125 -1.21875 0.765625q-0.578125 0.21875 -1.25 0.21875q-1.125 0 -1.71875 -0.546875q-0.59375 -0.546875 -0.59375 -1.390625q0 -0.484375 0.21875 -0.890625q0.234375 -0.421875 0.59375 -0.671875q0.375 -0.25 0.828125 -0.375q0.328125 -0.078125 1.015625 -0.171875q1.375 -0.15625 2.03125 -0.390625q0.015625 -0.234375 0.015625 -0.296875q0 -0.703125 -0.328125 -0.984375q-0.4375 -0.390625 -1.296875 -0.390625q-0.8125 0 -1.203125 0.28125q-0.375 0.28125 -0.5625 1.0l-1.109375 -0.140625q0.140625 -0.71875 0.484375 -1.15625q0.359375 -0.453125 1.015625 -0.6875q0.671875 -0.234375 1.53125 -0.234375q0.875 0 1.40625 0.203125q0.546875 0.203125 0.796875 0.515625q0.25 0.296875 0.359375 0.765625q0.046875 0.296875 0.046875 1.0625l0 1.515625q0 1.59375 0.078125 2.015625q0.078125 0.421875 0.28125 0.8125l-1.1875 0q-0.171875 -0.359375 -0.234375 -0.828125zm-0.09375 -2.5625q-0.625 0.265625 -1.859375 0.4375q-0.703125 0.109375 -1.0 0.234375q-0.296875 0.125 -0.453125 0.375q-0.15625 0.234375 -0.15625 0.53125q0 0.453125 0.34375 0.765625q0.34375 0.296875 1.015625 0.296875q0.65625 0 1.171875 -0.28125q0.515625 -0.296875 0.765625 -0.796875q0.171875 -0.375 0.171875 -1.140625l0 -0.421875zm2.6624756 1.375l1.125 -0.171875q0.09375 0.671875 0.53125 1.046875q0.4375 0.359375 1.21875 0.359375q0.78125 0 1.15625 -0.3125q0.390625 -0.328125 0.390625 -0.765625q0 -0.390625 -0.34375 -0.609375q-0.234375 -0.15625 -1.171875 -0.390625q-1.25 -0.3125 -1.734375 -0.546875q-0.484375 -0.234375 -0.734375 -0.640625q-0.25 -0.40625 -0.25 -0.90625q0 -0.453125 0.203125 -0.828125q0.203125 -0.390625 0.5625 -0.640625q0.265625 -0.203125 0.71875 -0.328125q0.46875 -0.140625 1.0 -0.140625q0.78125 0 1.375 0.234375q0.609375 0.21875 0.890625 0.609375q0.296875 0.390625 0.40625 1.046875l-1.125 0.15625q-0.078125 -0.53125 -0.4375 -0.8125q-0.359375 -0.296875 -1.03125 -0.296875q-0.78125 0 -1.125 0.265625q-0.34375 0.25 -0.34375 0.609375q0 0.21875 0.140625 0.390625q0.140625 0.1875 0.4375 0.3125q0.171875 0.0625 1.015625 0.28125q1.21875 0.328125 1.6875 0.53125q0.484375 0.203125 0.75 0.609375q0.28125 0.390625 0.28125 0.96875q0 0.578125 -0.34375 1.078125q-0.328125 0.5 -0.953125 0.78125q-0.625 0.28125 -1.421875 0.28125q-1.3125 0 -2.0 -0.546875q-0.6875 -0.546875 -0.875 -1.625zm11.5078125 -0.453125l1.125 0.140625q-0.171875 1.171875 -0.9375 1.828125q-0.765625 0.65625 -1.859375 0.65625q-1.390625 0 -2.234375 -0.90625q-0.828125 -0.90625 -0.828125 -2.59375q0 -1.09375 0.359375 -1.90625q0.359375 -0.828125 1.09375 -1.234375q0.734375 -0.40625 1.609375 -0.40625q1.09375 0 1.796875 0.5625q0.703125 0.546875 0.890625 1.5625l-1.109375 0.171875q-0.15625 -0.671875 -0.5625 -1.015625q-0.390625 -0.34375 -0.96875 -0.34375q-0.859375 0 -1.40625 0.625q-0.53125 0.609375 -0.53125 1.953125q0 1.359375 0.515625 1.984375q0.515625 0.609375 1.359375 0.609375q0.671875 0 1.125 -0.40625q0.453125 -0.421875 0.5625 -1.28125zm2.2578125 2.46875l0 -6.734375l1.03125 0l0 1.015625q0.390625 -0.71875 0.71875 -0.9375q0.34375 -0.234375 0.734375 -0.234375q0.578125 0 1.171875 0.359375l-0.390625 1.0625q-0.421875 -0.25 -0.828125 -0.25q-0.375 0 -0.6875 0.234375q-0.296875 0.21875 -0.421875 0.625q-0.1875 0.609375 -0.1875 1.328125l0 3.53125l-1.140625 0zm4.4539948 -7.984375l0 -1.328125l1.140625 0l0 1.328125l-1.140625 0zm0 7.984375l0 -6.734375l1.140625 0l0 6.734375l-1.140625 0zm2.96109 2.578125l0 -9.3125l1.03125 0l0 0.875q0.375 -0.515625 0.828125 -0.765625q0.46875 -0.265625 1.140625 -0.265625q0.859375 0 1.515625 0.453125q0.65625 0.4375 0.984375 1.25q0.34375 0.796875 0.34375 1.765625q0 1.03125 -0.375 1.859375q-0.359375 0.828125 -1.078125 1.28125q-0.703125 0.4375 -1.484375 0.4375q-0.5625 0 -1.015625 -0.234375q-0.453125 -0.25 -0.75 -0.625l0 3.28125l-1.140625 0zm1.03125 -5.90625q0 1.296875 0.53125 1.921875q0.53125 0.625 1.265625 0.625q0.765625 0 1.3125 -0.640625q0.546875 -0.65625 0.546875 -2.0q0 -1.296875 -0.53125 -1.9375q-0.53125 -0.640625 -1.265625 -0.640625q-0.734375 0 -1.296875 0.6875q-0.5625 0.671875 -0.5625 1.984375zm8.881226 2.3125l0.15625 1.0q-0.484375 0.109375 -0.859375 0.109375q-0.625 0 -0.96875 -0.203125q-0.34375 -0.203125 -0.484375 -0.515625q-0.140625 -0.328125 -0.140625 -1.34375l0 -3.890625l-0.828125 0l0 -0.875l0.828125 0l0 -1.671875l1.140625 -0.6875l0 2.359375l1.15625 0l0 0.875l-1.15625 0l0 3.953125q0 0.484375 0.0625 0.625q0.0625 0.140625 0.1875 0.21875q0.140625 0.078125 0.390625 0.078125q0.203125 0 0.515625 -0.03125z" fill-rule="nonzero"></path></g></svg>

